<svg xmlns="http://www.w3.org/2000/svg" xmlns:xlink="http://www.w3.org/1999/xlink" viewBox="0 0 2009.24 490.11"><defs><style>.cls-1{fill:#f5f5f5;}.cls-2{fill:url(#linear-gradient);}.cls-3{fill:url(#linear-gradient-2);}.cls-4{fill:url(#linear-gradient-3);}.cls-5{isolation:isolate;fill:url(#linear-gradient-4);}</style><linearGradient id="linear-gradient" y1="245.05" x2="432.88" y2="245.05" gradientUnits="userSpaceOnUse"><stop offset="0.32" stop-color="#fbfbfb"/><stop offset="1" stop-color="#e6e6e6"/></linearGradient><linearGradient id="linear-gradient-2" x1="259.6" y1="490.11" x2="259.6" y2="297.24" gradientUnits="userSpaceOnUse"><stop offset="0.32" stop-color="#ccc" stop-opacity="0.8"/><stop offset="1" stop-color="#ccc"/></linearGradient><linearGradient id="linear-gradient-3" x1="216.46" y1="358.33" x2="216.46" y2="198.8" gradientUnits="userSpaceOnUse"><stop offset="0.32" stop-color="#ccc" stop-opacity="0.5"/><stop offset="1" stop-color="#ccc" stop-opacity="0.7"/></linearGradient><linearGradient id="linear-gradient-4" x1="216.44" y1="246.63" x2="216.44" y2="112.12" gradientUnits="userSpaceOnUse"><stop offset="0.32" stop-color="#ccc" stop-opacity="0.3"/><stop offset="1" stop-color="#ccc" stop-opacity="0.3"/></linearGradient></defs><g id="Layer_2" data-name="Layer 2"><g id="Logo_Dark" data-name="Logo Dark"><g id="Logo"><g id="Text"><path id="a" class="cls-1" d="M1931.85,190q22.31,0,37.17,5.07t23.83,14.53a53.55,53.55,0,0,1,12.67,23,113.29,113.29,0,0,1,3.72,30.08V367.39q-10.83,2.37-30.08,5.57t-46.64,3.21a147.71,147.71,0,0,1-31.26-3,67.67,67.67,0,0,1-24.16-10,45.47,45.47,0,0,1-15.54-18.08q-5.41-11.15-5.41-27.37,0-15.54,6.25-26.36a48.06,48.06,0,0,1,16.73-17.23,75.69,75.69,0,0,1,24-9.3,134.92,134.92,0,0,1,28.05-2.87,160.33,160.33,0,0,1,17.41.84,78.59,78.59,0,0,1,12.33,2.2v-4.73q0-12.84-7.77-20.61t-27-7.78a173.28,173.28,0,0,0-25.34,1.86,108.88,108.88,0,0,0-21.63,5.24l-6.42-40.55c2.92-.9,6.59-1.86,11-2.88s9.18-1.91,14.36-2.7,10.65-1.46,16.39-2S1926,190,1931.85,190Zm4.05,147.34q7.44,0,14.2-.34a97.7,97.7,0,0,0,10.81-1V297.77q-3-.67-9.12-1.35a102,102,0,0,0-11.16-.68,100.37,100.37,0,0,0-13.35.85,34.9,34.9,0,0,0-11,3.21,18.82,18.82,0,0,0-7.43,6.42,17.82,17.82,0,0,0-2.71,10.14q0,11.83,7.94,16.39T1935.9,337.31Z"/><path id="t" class="cls-1" d="M1723,150.43l50.35-8.11V194.7h60.5v41.9h-60.5v62.52q0,15.9,5.58,25.35t22.47,9.46a96.53,96.53,0,0,0,16.73-1.52,86.25,86.25,0,0,0,15.72-4.22l7.09,39.2a142.71,142.71,0,0,1-20.27,6.42q-11.16,2.7-27.38,2.7-20.61,0-34.13-5.57t-21.63-15.55a57.79,57.79,0,0,1-11.32-24.16A142.66,142.66,0,0,1,1723,299.8Z"/><path id="r" class="cls-1" d="M1689.21,239.31q-6.76-1.69-15.89-3.55a98.08,98.08,0,0,0-19.6-1.86,91.55,91.55,0,0,0-11.32.85,67.21,67.21,0,0,0-10,1.85V372.46h-50.35V204.16a304.14,304.14,0,0,1,31.93-8.95,183.82,183.82,0,0,1,41.06-4.23c2.71,0,6,.17,9.8.51s7.66.79,11.49,1.35,7.66,1.24,11.49,2a54.63,54.63,0,0,1,9.8,2.87Z"/><path id="i" class="cls-1" d="M1539.5,143.33q0,13.86-9,21.8a32.07,32.07,0,0,1-42.25,0q-9-7.94-9-21.8t9-21.8a32.07,32.07,0,0,1,42.25,0Q1539.49,129.48,1539.5,143.33Zm-4.73,229.13h-50.35V194.7h50.35Z"/><path id="v" class="cls-1" d="M1347.13,372.46q-17.3-33.79-35.11-79.08t-33.74-98.68h53.39q3.39,13.19,8,28.56t9.5,31.09q4.92,15.71,9.85,30.58t9.68,27q4.39-12.18,9.49-27t10-30.58q4.92-15.72,9.5-31.09t8-28.56h52.07q-15.93,53.4-33.72,98.68t-35.08,79.08Z"/><path id="i-2" data-name="i" class="cls-1" d="M1261.38,143.33q0,13.86-9,21.8a32.07,32.07,0,0,1-42.25,0q-9-7.94-9-21.8t9-21.8a32.07,32.07,0,0,1,42.25,0Q1261.37,129.48,1261.38,143.33Zm-4.73,229.13H1206.3V194.7h50.35Z"/><path id="t-2" data-name="t" class="cls-1" d="M1054.56,150.43l50.36-8.11V194.7h60.49v41.9h-60.49v62.52q0,15.9,5.57,25.35t22.48,9.46a96.71,96.71,0,0,0,16.73-1.52,86.14,86.14,0,0,0,15.71-4.22l7.1,39.2a143.27,143.27,0,0,1-20.28,6.42q-11.14,2.7-27.37,2.7-20.62,0-34.14-5.57t-21.62-15.55a57.81,57.81,0,0,1-11.33-24.16,142.66,142.66,0,0,1-3.21-31.43Z"/><path id="t-3" data-name="t" class="cls-1" d="M904.52,150.43l50.36-8.11V194.7h60.49v41.9H954.88v62.52q0,15.9,5.57,25.35t22.48,9.46a96.51,96.51,0,0,0,16.72-1.52,86,86,0,0,0,15.72-4.22l7.09,39.2a142.71,142.71,0,0,1-20.27,6.42q-11.16,2.7-27.38,2.7-20.61,0-34.13-5.57t-21.63-15.55a57.91,57.91,0,0,1-11.32-24.16,142.66,142.66,0,0,1-3.21-31.43Z"/><path id="i-3" data-name="i" class="cls-1" d="M863.64,143.33q0,13.86-9,21.8a32.06,32.06,0,0,1-42.24,0q-9-7.94-9-21.8t9-21.8a32.06,32.06,0,0,1,42.24,0Q863.64,129.48,863.64,143.33ZM858.9,372.46H808.55V194.7H858.9Z"/><path id="B" class="cls-1" d="M662.9,375.5q-19.26,0-38.36-1.18a272.47,272.47,0,0,1-39.71-5.58V141.64a336,336,0,0,1,35.49-4.56q19.26-1.52,35.82-1.52a244,244,0,0,1,41.06,3.21q18.75,3.21,32.27,11A57.65,57.65,0,0,1,750.6,170.2q7.59,12.68,7.6,31.26,0,28-27,44.27,22.3,8.45,30.42,23a66.06,66.06,0,0,1,8.11,32.78q0,36.84-26.87,55.42T662.9,375.5ZM636.2,230.18h25.69q24.33,0,34.8-6.25t10.48-20.11q0-14.19-10.81-19.94t-31.77-5.74q-6.76,0-14.53.17c-5.19.12-9.8.39-13.86.84Zm0,40.22v60.49q5.74.67,12.51,1t14.87.34q23.64,0,38.18-6.76t14.53-25q0-16.22-12.16-23.14t-34.81-6.93Z"/></g><g id="Icon"><path id="Triangle" class="cls-2" d="M13.86,222.79,379.49,5.31c22.22-13.22,53.39-.23,53.39,22.26v435c0,22.48-31.17,35.48-53.39,22.26L13.86,267.31C-4.62,256.32-4.62,233.78,13.86,222.79Z"/><path id="_3" data-name="3" class="cls-3" d="M180.43,297.24c-1.37,0-2.74,0-4.1,0-30.87.29-60.27,6-90,13.49L379.49,484.8c22.22,13.22,53.38.22,53.38-22.26V358.33c-33.05-4.1-79-17.95-169.59-47.53A271.57,271.57,0,0,0,180.43,297.24Z"/><path id="_2" data-name="2" class="cls-4" d="M285.56,220.8c-81.7,43.93-64.65-62.84-212,0A622.66,622.66,0,0,1,0,246.63c.44,8,5,15.78,13.81,21l72.48,43.11c29.76-7.45,59.1-12.89,90-13.18h4.1A272.87,272.87,0,0,1,263.28,311c90.63,29.43,136.54,43.21,169.59,47.29V203.81C385.31,195.17,332.34,195.86,285.56,220.8Z"/><path id="_1" data-name="1" class="cls-5" d="M200.44,112.12l-186.59,111C4.15,228.88-.45,237.83,0,246.63A622.66,622.66,0,0,0,73.56,220.8c147.35-62.84,130.3,43.93,212,0,46.78-24.94,99.75-25.63,147.31-17v-73.7a238.35,238.35,0,0,0-42,17.74C342.57,173.67,293.23,129.06,200.44,112.12Z"/></g></g></g></g></svg>