<svg xmlns="http://www.w3.org/2000/svg" viewBox="0 0 448 512">
    <!--! Font Awesome Pro 6.1.1 by @fontawesome - https://fontawesome.com License - https://fontawesome.com/license (Commercial License) Copyright 2022 Fonticons, Inc. -->
    <path fill="#538cd7" d="M 384.5 32.5 h -320 c -35.3 0 -64 28.7 -64 64 v 320 c 0 35.3 28.7 64 64 64 h 320 c 35.3 0 64 -28.7 64 -64 v -320 C 448.5 61.2 419.8 32.5 384.5 32.5 z M 336.5 312.5 c -31.6 11.2 -41.2 16 -59.8 16 c -31.4 0 -43.2 -16 -74.6 -16 c -10.2 0 -18.2 1.6 -25.6 4 v -32 c 7.4 -2.2 15.4 -4 25.6 -4 c 31.2 0 43.2 16 74.6 16 c 10.2 0 17.8 -1.4 27.8 -4.6 v -96 c -10 3.2 -17.6 4.6 -27.8 4.6 c -31.4 0 -43.2 -16 -74.6 -16 c -25.4 0 -37.4 10.4 -57.6 14.4 v 153.6 c 0 8.8 -7.2 16 -16 16 c -8.8 0 -16 -7.2 -16 -16 v -192 c 0 -8.8 7.2 -16 16 -16 c 8.8 0 16 7.2 16 16 v 6.4 c 20.2 -4 32.2 -14.4 57.6 -14.4 c 31.2 0 43.2 16 74.6 16 c 18.6 0 28.2 -4.8 59.8 -16 V 312.5 z" />
    <linearGradient id="gt7tgdtt" />
</svg>