<svg xmlns="http://www.w3.org/2000/svg" viewBox="0 0 448 512">
    <!--! Font Awesome Pro 6.1.1 by @fontawesome - https://fontawesome.com License - https://fontawesome.com/license (Commercial License) Copyright 2022 Fonticons, Inc. -->
    <path fill="#e94e31" d="M 100.6 334.2 c 48.6 3.3 59 2.1 59 11.9 c 0 20 -65.5 20.1 -65.5 1.5 c 0 -5.1 3.3 -9.4 6.6 -13.5 z m 27.9 -116.6 c -32.3 0 -33.8 44.5 -0.8 44.5 c 32.5 0 31.7 -44.5 0.8 -44.5 z M 448 80 v 352 C 448 458.5 426.5 480 400 480 H 48 C 21.5 480 0 458.5 0 432 V 80 C 0 53.5 21.5 32 48 32 h 352 C 426.5 32 448 53.5 448 80 z m -227 69.3 c 0 14.5 8.4 22.9 22.9 22.9 c 14.7 0 23.1 -8.4 23.1 -22.9 S 258.6 127 243.9 127 c -14.5 0 -22.9 7.8 -22.9 22.3 z M 199.2 195 h -49.6 c -25 -6.6 -81.6 -4.8 -81.6 46.8 c 0 18.8 9.4 32 21.8 38.1 C 74.2 294.2 66.8 301 66.8 310.6 c 0 6.9 2.8 13.2 11.2 16.8 c -8.9 8.4 -14 14.5 -14 25.9 C 64 373.4 81.5 385 127.5 385 c 44.2 0 69.9 -16.5 69.9 -45.7 c 0 -36.7 -28.2 -35.3 -94.8 -39.4 l 8.4 -13.4 c 17 4.7 74.2 6.2 74.2 -42.4 c 0 -11.7 -4.8 -19.8 -9.4 -25.7 l 23.4 -1.8 z m 84.3 109.8 l -13 -1.8 c -3.8 -0.5 -4.1 -1 -4.1 -5.1 V 192.5 h -52.6 l -2.8 20.6 c 15.8 5.6 17 4.9 17 10.2 V 298 c 0 5.6 -0.3 4.6 -17 6.9 v 20.1 h 72.4 z M 384 315 l -6.9 -22.4 c -40.9 15.4 -37.9 -12.4 -37.9 -16.7 v -60.7 h 37.9 v -25.4 h -35.8 c -2.9 0 -2 2.5 -2 -38.6 h -24.2 c -2.8 27.7 -11.7 38.9 -34 41.4 v 22.6 c 20.5 0 19.8 -0.8 19.8 2.5 v 66.6 c 0 28.7 11.4 40.9 41.7 40.9 c 14.4 0 30.4 -4.8 41.4 -10.2 z" />
</svg>