<svg xmlns="http://www.w3.org/2000/svg" viewBox="0 0 290 100">
    <defs>
        <style>.cls-1{fill:#e6eaed;}.cls-2{fill:#2d8a25;}.cls-3{fill:#fff;}</style>
    </defs>
    <g id="Layer_2" data-name="Layer 2">
        <g id="Layer_1-2" data-name="Layer 1">
            <path class="cls-1" d="M284,100H0V0H284a6,6,0,0,1,6,6V94A6,6,0,0,1,284,100Z" />
            <g id="Layer_2-2" data-name="Layer 2">
                <g id="Logo_Dark" data-name="Logo Dark">
                    <g id="Logo_group-2" data-name="Logo group-2">
                        <g id="Text">
                            <path class="cls-2" d="M91.19,26.8a2.67,2.67,0,0,1,1.37.28,1.73,1.73,0,0,1,.74,1l2.27,6.27h.08l2.2-6.11a2.07,2.07,0,0,1,.79-1.09,2.52,2.52,0,0,1,1.4-.33,6.37,6.37,0,0,1,2,.24L103,40.48H99.18l-.4-6.8H98.7L96.89,38H94.2l-1.69-4.16h-.08L92,40.48H88.16l1-13.44a5.73,5.73,0,0,1,.92-.17A10.9,10.9,0,0,1,91.19,26.8Z" />
                            <path class="cls-2" d="M108.91,40.48h-4V26.94a10,10,0,0,1,1.54-.14c1.66,0,2.49.68,2.49,2Z" />
                            <path class="cls-2" d="M118.55,34.17V26.94A7.72,7.72,0,0,1,120,26.8q2.49,0,2.49,2V40.48h-3.25L115,33.76v6.72h-3.92V26.94a11.73,11.73,0,0,1,1.77-.14,3,3,0,0,1,1.38.28,2.13,2.13,0,0,1,.89.94Z" />
                            <path class="cls-2" d="M132,37.41c1.48,0,2.23.65,2.23,1.94,0,.15,0,.28,0,.4v.34c0,.11,0,.25,0,.39h-9.47V26.9h9.16c0,.41.07.81.07,1.22a1.75,1.75,0,0,1-.56,1.39,2.28,2.28,0,0,1-1.6.51h-3v2.05h3.87v3.09h-3.87v2.25Z" />
                            <path class="cls-2" d="M137,36.19a2.06,2.06,0,0,1-1.46-.48,1.8,1.8,0,0,1-.51-1.36c0-.21,0-.43,0-.65s0-.43,0-.64h4.72a2.57,2.57,0,0,1,1.62.42A1.61,1.61,0,0,1,142,34.8c0,.36,0,.83,0,1.39Z" />
                            <path class="cls-2" d="M89.1,56.13a7.35,7.35,0,0,0,4.11,1.52c1.11,0,1.66-.45,1.66-1.35a1.23,1.23,0,0,0-.48-1,6.55,6.55,0,0,0-2-.92,9.59,9.59,0,0,1-2.69-1.24,4.2,4.2,0,0,1-1.36-1.65,5.22,5.22,0,0,1-.45-2.24,4.73,4.73,0,0,1,.8-2.78A5,5,0,0,1,91,44.74a7.93,7.93,0,0,1,3.22-.62,11,11,0,0,1,2.55.3,7.17,7.17,0,0,1,2,.78,2.67,2.67,0,0,1,.77.69,1.53,1.53,0,0,1,.23.81,2.32,2.32,0,0,1-.26,1,9.8,9.8,0,0,1-.94,1.46,7.26,7.26,0,0,0-1.87-.93,5.84,5.84,0,0,0-1.85-.36,2.32,2.32,0,0,0-1.24.27.83.83,0,0,0-.44.76.91.91,0,0,0,.4.75,5.76,5.76,0,0,0,1.47.67c.55.18,1.11.39,1.68.62a6.58,6.58,0,0,1,1.59.9,4.23,4.23,0,0,1,1.18,1.44,5.11,5.11,0,0,1,.47,2.21,5.55,5.55,0,0,1-1.7,4.32,6.79,6.79,0,0,1-4.76,1.55,12.17,12.17,0,0,1-2.75-.28,6.53,6.53,0,0,1-2-.8,1.69,1.69,0,0,1-.88-1.5A5.1,5.1,0,0,1,89.1,56.13Z" />
                            <path class="cls-2" d="M114.06,49.59a5.77,5.77,0,0,1-1.78,4.52,7.16,7.16,0,0,1-4.94,1.6h-.59v5.2h-4.92V44.59c1.82-.18,3.45-.27,4.9-.27a9.55,9.55,0,0,1,5.51,1.3A4.56,4.56,0,0,1,114.06,49.59Zm-5,.2a2.34,2.34,0,0,0-.46-1.57,1.68,1.68,0,0,0-1.34-.54H107a1.27,1.27,0,0,0-.28,0v4.64h.42a1.68,1.68,0,0,0,1.44-.65A3.1,3.1,0,0,0,109.09,49.79Z" />
                            <path class="cls-2" d="M124.82,57.18c1.8,0,2.7.78,2.7,2.36,0,.18,0,.33,0,.48a2.81,2.81,0,0,0,0,.41,4.4,4.4,0,0,1,0,.48H116V44.44h11.11a14.5,14.5,0,0,1,.09,1.47,2.16,2.16,0,0,1-.68,1.7,2.85,2.85,0,0,1-2,.61h-3.65V50.7h4.7v3.75h-4.7v2.73Z" />
                            <path class="cls-2" d="M139.58,60.91,138.23,57h-4L133,60.91h-4.82l5.22-16.08a5.18,5.18,0,0,1,1.33-.38,9.85,9.85,0,0,1,1.62-.14,3.87,3.87,0,0,1,2.22.54,3.14,3.14,0,0,1,1.14,1.65l4.78,14.41ZM136.73,50.8a13.88,13.88,0,0,1-.46-2.46h-.07a15.32,15.32,0,0,1-.46,2.43l-.86,3.12h2.65Z" />
                            <path class="cls-2" d="M150.68,60.91h-4.9V44.49a9.9,9.9,0,0,1,1.88-.18c2,0,3,.81,3,2.45ZM152,56.17a10.71,10.71,0,0,1-1.06-2,5.41,5.41,0,0,1-.25-1.69,4.39,4.39,0,0,1,.32-1.64,9.82,9.82,0,0,1,1.09-1.95l1.83-2.67a5.19,5.19,0,0,1,1.44-1.5,3.09,3.09,0,0,1,1.57-.4,4.8,4.8,0,0,1,2.07.62,6.73,6.73,0,0,1,1,.59l-4.48,6.8,4.94,8.15a7.63,7.63,0,0,1-1.62.58,9.69,9.69,0,0,1-1.86.18,3.19,3.19,0,0,1-2.87-1.67Z" />
                        </g>
                        <path class="cls-2" d="M88.57,71.89a3.65,3.65,0,0,0,.91.54,2.14,2.14,0,0,0,.87.16,1.38,1.38,0,0,0,.88-.25.84.84,0,0,0,.33-.72.92.92,0,0,0-.2-.6,1.43,1.43,0,0,0-.52-.36c-.22-.1-.46-.19-.69-.27a5.83,5.83,0,0,1-.7-.25,2.67,2.67,0,0,1-.63-.37,1.66,1.66,0,0,1-.46-.59,1.91,1.91,0,0,1-.18-.88,1.92,1.92,0,0,1,.33-1.14,2.16,2.16,0,0,1,.93-.73,3.25,3.25,0,0,1,1.31-.25,4.4,4.4,0,0,1,1.09.14,2.52,2.52,0,0,1,.79.34.54.54,0,0,1,.3.49.77.77,0,0,1-.12.36,1.88,1.88,0,0,1-.31.43,2.8,2.8,0,0,0-.77-.44,2.42,2.42,0,0,0-.84-.17,1.52,1.52,0,0,0-.84.21.7.7,0,0,0-.32.61.74.74,0,0,0,.11.39.9.9,0,0,0,.34.33,4.92,4.92,0,0,0,.88.39c.23.08.47.18.71.28a2.92,2.92,0,0,1,.64.38,1.84,1.84,0,0,1,.48.59,1.88,1.88,0,0,1,.18.88,2.16,2.16,0,0,1-.72,1.73,2.94,2.94,0,0,1-2,.62,4.39,4.39,0,0,1-1.09-.11,3.26,3.26,0,0,1-.87-.33.55.55,0,0,1-.3-.47A1.82,1.82,0,0,1,88.57,71.89Z" />
                        <path class="cls-2" d="M99.76,70.64a8.46,8.46,0,0,1-.05.87,2.43,2.43,0,0,1-.41,1.2,2.21,2.21,0,0,1-1,.76,3.88,3.88,0,0,1-1.43.25A3,3,0,0,1,95,73.18a2.47,2.47,0,0,1-.8-1.71,5.91,5.91,0,0,1,0-.84V66.32a4.4,4.4,0,0,1,.51,0c.65,0,1,.28,1,.84v3.63a2.81,2.81,0,0,0,.13,1,1,1,0,0,0,.42.53,1.52,1.52,0,0,0,.78.18,1.23,1.23,0,0,0,1-.39,2,2,0,0,0,.32-1.23V66.32a4.36,4.36,0,0,1,.52,0q1,0,1,.84Z" />
                        <path class="cls-2" d="M107.53,69.91a4.21,4.21,0,0,1-.86,2.81,3,3,0,0,1-2.45,1,3.24,3.24,0,0,1-1.77-.46,2.86,2.86,0,0,1-1.1-1.33,5,5,0,0,1-.37-2,4.59,4.59,0,0,1,.4-2,2.87,2.87,0,0,1,1.16-1.3,3.37,3.37,0,0,1,1.76-.45,3,3,0,0,1,2.38,1A4.15,4.15,0,0,1,107.53,69.91Zm-1.53,0a3.43,3.43,0,0,0-.43-1.89,1.44,1.44,0,0,0-1.28-.67A1.51,1.51,0,0,0,103,68a3.38,3.38,0,0,0-.45,1.9,3.59,3.59,0,0,0,.45,1.94,1.56,1.56,0,0,0,2.16.43,1.47,1.47,0,0,0,.43-.43,3.52,3.52,0,0,0,.45-1.94Z" />
                        <path class="cls-2" d="M109.9,66.27a.84.84,0,0,1,.51.14,1,1,0,0,1,.35.47l1.64,3.87,1.66-3.83a1,1,0,0,1,.9-.65,2.07,2.07,0,0,1,.74.1l.52,7.19h-1.4l-.34-4.8L113,72h-1.24l-1.43-3.14L110,73.56h-1.42l.53-7.19A2.44,2.44,0,0,1,109.9,66.27Z" />
                        <path class="cls-2" d="M122,73.56l-.62-1.78h-2.5l-.59,1.78h-1.47l2.5-7.14a2.16,2.16,0,0,1,.87-.15,1,1,0,0,1,1,.67l2.31,6.62Zm-1.85-5.94-1,3.08h1.94Z" />
                        <path class="cls-2" d="M125.8,72.36h2.11c.58,0,.87.25.87.76a2.16,2.16,0,0,1,0,.44h-4.45V66.32a4.36,4.36,0,0,1,.52,0,1.06,1.06,0,0,1,.72.22.81.81,0,0,1,.25.62Z" />
                        <path class="cls-2" d="M134.25,73.56l-.62-1.78h-2.49l-.59,1.78h-1.47l2.5-7.14a2.16,2.16,0,0,1,.87-.15.94.94,0,0,1,1,.67l2.34,6.62Zm-1.84-5.94-1,3.08h1.94Z" />
                        <path class="cls-2" d="M136.55,66.32a4.36,4.36,0,0,1,.52,0q1,0,1,.84v6.45h-1.48Z" />
                        <path class="cls-2" d="M145.17,73.56h-1.26l-3.09-4.76v4.76h-1.41V66.33a3.6,3.6,0,0,1,.66-.06,1.13,1.13,0,0,1,.51.1.93.93,0,0,1,.37.39l2.79,4.55v-5a4.07,4.07,0,0,1,.49,0q.93,0,.93.84Z" />
                        <path class="cls-2" d="M150.41,72.41a1,1,0,0,1,.66.2.69.69,0,0,1,.23.57v.2a1.21,1.21,0,0,1,0,.18h-4.68V66.31h4.5a1.9,1.9,0,0,1,0,.41.71.71,0,0,1-.22.58,1.12,1.12,0,0,1-.71.18h-2.13v1.78h2.3v1.16h-2.3v2Z" />
                        <path class="cls-2" d="M158,73.56h-1.27l-3.07-4.76v4.76h-1.42V66.33a3.68,3.68,0,0,1,.66-.06,1.11,1.11,0,0,1,.51.1,1,1,0,0,1,.38.39l2.79,4.55v-5a3.91,3.91,0,0,1,.48,0q.93,0,.93.84Z" />
                        <path class="cls-2" d="M162.67,66.27a.84.84,0,0,1,.51.14,1,1,0,0,1,.35.47l1.64,3.87,1.65-3.83a1,1,0,0,1,.9-.65,2.09,2.09,0,0,1,.75.1l.52,7.19h-1.41l-.33-4.8L165.78,72h-1.25l-1.42-3.14-.32,4.66h-1.41l.53-7.19A2.44,2.44,0,0,1,162.67,66.27Z" />
                        <path class="cls-2" d="M170.24,66.32a4.4,4.4,0,0,1,.51,0c.65,0,1,.28,1,.84v6.45h-1.48Z" />
                        <path class="cls-2" d="M178.85,73.56h-1.26l-3.08-4.76v4.76H173.1V66.33a3.6,3.6,0,0,1,.66-.06,1.13,1.13,0,0,1,.51.1,1,1,0,0,1,.38.39l2.79,4.55v-5a3.91,3.91,0,0,1,.48,0q.93,0,.93.84Z" />
                        <path class="cls-2" d="M184.09,72.41a1,1,0,0,1,.66.2.73.73,0,0,1,.24.57v.2a1.41,1.41,0,0,1,0,.18h-4.68V66.31h4.5a2.83,2.83,0,0,1,0,.41.7.7,0,0,1-.19.58,1.12,1.12,0,0,1-.71.18h-2.14v1.78h2.29v1.16h-2.29v2Z" />
                        <path class="cls-2" d="M190.7,73.15a1.5,1.5,0,0,1-.48.3,3.35,3.35,0,0,1-.7.22,4.57,4.57,0,0,1-.83.07,3.2,3.2,0,0,1-2.5-1,4.08,4.08,0,0,1-.87-2.78,4.7,4.7,0,0,1,.41-2,3,3,0,0,1,1.17-1.31,3.54,3.54,0,0,1,1.8-.45,3.86,3.86,0,0,1,1.17.18,2.44,2.44,0,0,1,.86.48.58.58,0,0,1,.24.47,1.33,1.33,0,0,1-.52.83,2.54,2.54,0,0,0-.8-.57,2.15,2.15,0,0,0-.87-.18,1.65,1.65,0,0,0-1.44.68,3.73,3.73,0,0,0,0,3.78,1.74,1.74,0,0,0,1.49.67,2,2,0,0,0,.73-.13,2.18,2.18,0,0,0,.52-.28l.35-.28a1.76,1.76,0,0,1,.49.87.42.42,0,0,1-.05.22A.69.69,0,0,1,190.7,73.15Z" />
                        <path class="cls-2" d="M197,68.39a2.31,2.31,0,0,1-.36,1.32,2,2,0,0,1-1,.79l1.79,3a2.19,2.19,0,0,1-.87.18,1.15,1.15,0,0,1-.67-.18,1.58,1.58,0,0,1-.5-.56l-1.23-2.1h-.59v2.73H192V66.34a17.65,17.65,0,0,1,1.92-.11,4.1,4.1,0,0,1,2.29.52A1.85,1.85,0,0,1,197,68.39Zm-1.55.14a1.2,1.2,0,0,0-.33-.93,1.42,1.42,0,0,0-1-.3h-.34l-.24,0v2.49H194a1.45,1.45,0,0,0,1-.33A1.27,1.27,0,0,0,195.43,68.53Z" />
                        <path class="cls-2" d="M202.76,73.56l-.62-1.78h-2.5l-.59,1.78h-1.47l2.51-7.14a2.11,2.11,0,0,1,.86-.15,1,1,0,0,1,1,.67l2.32,6.62Zm-1.85-5.94-1,3.08h1.94Z" />
                        <path class="cls-2" d="M206.59,69.16h2.32v1.15h-2.32v3.25H205.1V66.31h4.54a1.87,1.87,0,0,1,0,.4c0,.51-.29.76-.88.76h-2.21Z" />
                        <path class="cls-2" d="M212.42,67.52h-2.26a3,3,0,0,1,0-.43.69.69,0,0,1,.25-.57,1.07,1.07,0,0,1,.67-.21h5.08a3.71,3.71,0,0,1,0,.47.67.67,0,0,1-.23.54,1,1,0,0,1-.65.2h-1.36v6h-1.5Z" />
                        <path class="cls-2" d="M216.62,71.09c-.52,0-.78-.23-.78-.68a3.55,3.55,0,0,1,0-.46h2.71a.93.93,0,0,1,.63.15.64.64,0,0,1,.18.53v.23a1.77,1.77,0,0,1,0,.23Z" />
                        <path class="cls-2" d="M223.07,70.78v2.78h-1.48V70.82l-2.31-4.33a2,2,0,0,1,.9-.22,1.2,1.2,0,0,1,.38,0,.59.59,0,0,1,.29.18,1.45,1.45,0,0,1,.25.36l1.26,2.52,1.26-2.5a1.23,1.23,0,0,1,.39-.46,1,1,0,0,1,.56-.14,2.43,2.43,0,0,1,.38,0,3.19,3.19,0,0,1,.44.13Z" />
                        <path class="cls-2" d="M227.64,69.25h2.72V66.32a3.29,3.29,0,0,1,.54,0,1,1,0,0,1,.69.21.77.77,0,0,1,.25.64v6.44h-1.48V70.43h-2.72v3.13h-1.49V66.32a4.8,4.8,0,0,1,.52,0c.64,0,1,.28,1,.84Z" />
                        <path class="cls-2" d="M234.89,67.52h-2.26a3,3,0,0,1,0-.43.69.69,0,0,1,.25-.57,1.07,1.07,0,0,1,.67-.21h5.08a3.71,3.71,0,0,1,0,.47.7.7,0,0,1-.23.54,1,1,0,0,1-.66.2h-1.36v6h-1.49Z" />
                        <path class="cls-2" d="M243.25,72.41a1,1,0,0,1,.66.2.73.73,0,0,1,.24.57v.2a1.41,1.41,0,0,1,0,.18h-4.69V66.31H244a2.83,2.83,0,0,1,0,.41.7.7,0,0,1-.21.58,1.12,1.12,0,0,1-.71.18h-2.13v1.78h2.29v1.16h-2.29v2Z" />
                        <path class="cls-2" d="M245.06,66.32a4.57,4.57,0,0,1,.52,0q1,0,1,.84v6.45h-1.48Z" />
                        <path class="cls-2" d="M248,71.89a3.59,3.59,0,0,0,.9.54,2.22,2.22,0,0,0,.88.16,1.39,1.39,0,0,0,.88-.25.87.87,0,0,0,.33-.72.93.93,0,0,0-.21-.6,1.53,1.53,0,0,0-.51-.36c-.23-.1-.46-.19-.7-.27a6.37,6.37,0,0,1-.69-.25,2.48,2.48,0,0,1-.63-.37,1.68,1.68,0,0,1-.47-.59,1.91,1.91,0,0,1-.18-.88,1.93,1.93,0,0,1,.34-1.14,2.13,2.13,0,0,1,.92-.73,3.28,3.28,0,0,1,1.31-.25,4.54,4.54,0,0,1,1.1.14,2.78,2.78,0,0,1,.79.34.56.56,0,0,1,.3.49.77.77,0,0,1-.12.36,2.24,2.24,0,0,1-.31.43,3.12,3.12,0,0,0-.77-.44,2.47,2.47,0,0,0-.84-.17,1.58,1.58,0,0,0-.85.21.71.71,0,0,0-.31.61.73.73,0,0,0,.1.39,1,1,0,0,0,.34.33,4.71,4.71,0,0,0,.89.39c.23.08.46.18.7.28a3.25,3.25,0,0,1,.65.38,1.68,1.68,0,0,1,.47.59,1.76,1.76,0,0,1,.18.88,2.16,2.16,0,0,1-.72,1.73,2.9,2.9,0,0,1-2,.62,4.44,4.44,0,0,1-1.09-.11,3.54,3.54,0,0,1-.87-.33.57.57,0,0,1-.3-.47A2,2,0,0,1,248,71.89Z" />
                        <path class="cls-2" d="M259.92,69.91a4.21,4.21,0,0,1-.86,2.81,3,3,0,0,1-2.45,1,3.24,3.24,0,0,1-1.77-.46,2.86,2.86,0,0,1-1.1-1.33,5,5,0,0,1-.37-2,4.46,4.46,0,0,1,.41-2,2.9,2.9,0,0,1,1.15-1.3,3.43,3.43,0,0,1,1.77-.45,3,3,0,0,1,2.38,1A4.09,4.09,0,0,1,259.92,69.91Zm-1.53,0A3.43,3.43,0,0,0,258,68a1.43,1.43,0,0,0-1.27-.67,1.5,1.5,0,0,0-1.33.67,3.26,3.26,0,0,0-.46,1.89,3.54,3.54,0,0,0,.46,2,1.55,1.55,0,0,0,2.15.43,1.47,1.47,0,0,0,.43-.43,3.56,3.56,0,0,0,.45-2Zm-2.06-5a.7.7,0,0,1-.2.49.74.74,0,0,1-.5.2.68.68,0,0,1-.52-.2.71.71,0,0,1,0-1,.74.74,0,0,1,.51-.2.7.7,0,0,1,.5.2A.67.67,0,0,1,256.33,65Zm2.12,0a.7.7,0,0,1-.2.49.74.74,0,0,1-.51.2.66.66,0,0,1-.51-.2.71.71,0,0,1,0-1,.74.74,0,0,1,.51-.2.7.7,0,0,1,.5.2A.67.67,0,0,1,258.45,65Z" />
                        <path id="Bubble" class="cls-2" d="M79,47A22.07,22.07,0,0,1,57,69.1l-.09,6a28,28,0,0,1-22-27.93V47A22.07,22.07,0,1,1,79,47Z" />
                        <g id="M">
                            <path class="cls-3" d="M50.33,37.07a4.15,4.15,0,0,1,2,.4,2.6,2.6,0,0,1,1.07,1.42L56.73,48h.12l3.23-8.87a3.14,3.14,0,0,1,1.15-1.59,3.82,3.82,0,0,1,2.05-.47,9.14,9.14,0,0,1,3,.36l1.38,19.51H62l-.59-9.87h-.11l-2.65,6.25H54.74l-2.47-6h-.12l-.62,9.66H45.89l1.42-19.5a6.84,6.84,0,0,1,1.35-.25A15.44,15.44,0,0,1,50.33,37.07Z" />
                        </g>
                    </g>
                </g>
            </g>
        </g>
    </g>
</svg>