<?xml version="1.0" encoding="UTF-8"?>
<svg id="Layer_1" data-name="Layer 1" xmlns="http://www.w3.org/2000/svg"
    xmlns:xlink="http://www.w3.org/1999/xlink" viewBox="0 0 41.1 17.78">
    <defs>
        <style>
            .cls-1 {
            fill: url(#linear-gradient);
            }

            .cls-1, .cls-2 {
            stroke-width: 0px;
            }

            .cls-2 {
            fill: #fff;
            }
        </style>
        <linearGradient id="linear-gradient" x1="0" y1="8.89" x2="41.1" y2="8.89"
            gradientUnits="userSpaceOnUse">
            <stop offset="0" stop-color="#da4100" />
            <stop offset="1" stop-color="#ff931e" />
        </linearGradient>
    </defs>
    <rect class="cls-1" width="41.1" height="17.78" rx="3" ry="3" />
    <g>
        <path class="cls-2"
            d="m13.57,5.23v.97c0,.9-1.88,1.62-4.2,1.62s-4.2-.73-4.2-1.62v-.97c0-.9,1.88-1.62,4.2-1.62s4.2.73,4.2,1.62Zm-1.03,2.63c.39-.15.75-.34,1.03-.58v2.07c0,.9-1.88,1.62-4.2,1.62s-4.2-.73-4.2-1.62v-2.07c.28.24.64.43,1.03.58.84.32,1.96.51,3.17.51s2.33-.19,3.17-.51Zm-7.37,2.58c.28.24.64.43,1.03.58.84.32,1.96.51,3.17.51s2.33-.19,3.17-.51c.39-.15.75-.34,1.03-.58v1.74c0,.9-1.88,1.62-4.2,1.62s-4.2-.73-4.2-1.62v-1.74Z" />
        <path class="cls-2"
            d="m22.22,10.42c0,.5-.13.93-.39,1.31-.26.38-.63.68-1.11.89-.48.21-1.07.32-1.75.32-.75,0-1.38-.11-1.89-.33-.51-.22-.93-.49-1.26-.82l.96-1.06c.3.26.62.46.98.6.36.14.75.21,1.18.21.4,0,.72-.09.96-.26.25-.17.37-.41.37-.72,0-.29-.1-.52-.31-.69-.21-.17-.59-.33-1.14-.5-.93-.28-1.6-.62-1.99-1.01-.39-.39-.59-.88-.59-1.49,0-.49.14-.9.41-1.25.27-.35.63-.61,1.09-.79s.96-.27,1.51-.27c.62,0,1.16.09,1.64.27.47.18.88.43,1.23.76l-.89,1.03c-.27-.23-.56-.39-.87-.5-.31-.11-.63-.16-.95-.16-.36,0-.65.07-.87.2-.22.13-.33.33-.33.58,0,.17.05.31.14.43s.26.22.5.33c.24.1.57.22.99.35.5.15.93.34,1.29.55.36.21.63.48.82.8s.29.73.29,1.22Z" />
        <path class="cls-2"
            d="m29.21,8.75c0,.52-.05,1.01-.16,1.47-.1.46-.28.87-.52,1.22-.25.35-.58.64-1,.85.42.07.78.17,1.08.31.3.14.55.33.76.59s.39.6.53,1.03l-1.54.52c-.17-.4-.35-.74-.55-1.01-.2-.27-.44-.48-.74-.62-.29-.14-.67-.21-1.14-.21-1,0-1.74-.37-2.23-1.11-.49-.74-.73-1.76-.73-3.05,0-.85.11-1.58.34-2.21.23-.63.57-1.11,1.04-1.46.46-.35,1.04-.52,1.74-.52s1.28.17,1.74.51c.46.34.81.82,1.04,1.45.23.63.35,1.37.35,2.24Zm-1.97,0c0-.98-.08-1.69-.24-2.13-.16-.45-.46-.67-.92-.67s-.76.22-.92.67c-.16.45-.25,1.16-.25,2.13s.08,1.69.25,2.14c.17.45.47.67.91.67s.77-.23.92-.68c.16-.45.23-1.16.23-2.14Z" />
        <path class="cls-2" d="m30.37,12.97V4.56h1.68v6.72h3.88l-.2,1.68h-5.37Z" />
    </g>
</svg>