<?xml version="1.0"?>
<svg height="512px" style="enable-background:new 0 0 512 512;" version="1.1" viewBox="0 0 512 512" width="512px" xml:space="preserve" xmlns="http://www.w3.org/2000/svg" xmlns:xlink="http://www.w3.org/1999/xlink">
    <g id="_x33_76-whmcs">
        <g>
            <path d="M485.947,158.426v-21.865l-29.257-9.033l-2.258-10.677l20.634-21.249L464.39,75.686l-29.77,7.699    l-7.392-7.699l7.7-28.948l-19.607-11.908l-21.864,21.558l-10.985-3.285l-7.186-27.101h-23.201l-6.364,27.101l-12.422,3.285    l-20.223-21.558l-19.915,11.292l8.313,28.436l-8.313,8.623l-29.256-7.699l-11.293,19.606l21.25,21.559l-2.977,10.678    l-29.257,8.005l-0.309,22.277l29.565,7.699l2.464,12.42l-20.635,20.43l10.677,18.991l30.385-7.699l7.392,8.828l-8.314,27.615    l20.429,11.907l19.915-20.941l11.907,2.978l6.879,29.255l23.199,0.311l6.878-29.565l11.907-3.594l21.251,22.174l20.941-12.422    l-9.033-28.744l8.006-8.313l29.565,9.033l10.573-20.634l-21.454-19.3l2.257-12.421L485.947,158.426z M363.582,204.827    c-32.129,0-58.307-26.074-58.307-58.309s26.073-58.308,58.307-58.308c32.235,0,58.309,26.073,58.309,58.308    C421.891,178.854,395.817,204.827,363.582,204.827z" style="fill:#DCDAE0;" />
            <path d="M437.803,221.662l48.145,14.885v40.96l-56.563,13.757l-4.209,23.302l39.935,36.237l-19.712,38.906    l-55.433-17.144l-14.988,15.603l17.143,53.894l-39.315,23.305l-39.933-41.574l-22.276,6.772l-12.937,55.435l-43.524-0.512    l-12.936-55.024l-22.276-5.748l-37.365,39.419l-38.394-22.276l15.604-51.842l-14.064-16.527l-56.974,14.476l-20.224-35.726    l38.908-38.392l-4.928-23.405l-55.433-14.476l0.513-41.985l54.92-15.091l5.851-20.222l-39.933-40.447l21.25-36.75l55.024,14.475    l15.604-16.118l-15.604-53.38l37.366-21.249l37.777,40.446l23.303-6.262l11.908-53.382h43.527l11.907,47.119l-23.199-6.056    l-6.468-1.747l-3.388,5.852l-11.293,19.607l-3.387,5.749l4.722,4.722l17.655,17.862l-0.307,1.027l-24.432,6.673l-6.364,1.744    l-0.103,6.57l-0.207,13.242c-48.761,10.676-85.511,54.203-85.511,106.248c0,59.848,48.557,108.507,108.506,108.507    c51.843,0,95.163-36.341,105.941-85l13.55,0.206l7.083,0.103l1.643-6.877l5.749-24.637l1.95-0.617l17.556,18.274l4.824,5.027    l5.952-3.487l20.943-12.423l5.954-3.592l-2.053-6.674L437.803,221.662L437.803,221.662z" style="fill:#73CB0B;" />
        </g>
    </g>
</svg>