<?xml version="1.0" encoding="UTF-8"?>
<svg id="Layer_1" data-name="Layer 1" xmlns="http://www.w3.org/2000/svg" xmlns:xlink="http://www.w3.org/1999/xlink" viewBox="0 0 1024 1024">
  <defs>
    <style>
      .cls-1 {
        opacity: .6;
      }

      .cls-1, .cls-2 {
        fill: none;
      }

      .cls-3 {
        fill: url(#linear-gradient);
      }

      .cls-4 {
        opacity: .1;
      }

      .cls-4, .cls-5 {
        isolation: isolate;
      }

      .cls-6 {
        fill: url(#linear-gradient-2);
      }

      .cls-2 {
        filter: url(#drop-shadow-1);
      }

      .cls-5 {
        opacity: .2;
      }
    </style>
    <linearGradient id="linear-gradient" x1="-1910.73" y1="512" x2="2446.3" y2="512" gradientUnits="userSpaceOnUse">
      <stop offset="0" stop-color="#2935ce"/>
      <stop offset=".26" stop-color="#273ed0"/>
      <stop offset=".69" stop-color="#2257d5"/>
      <stop offset=".99" stop-color="#1f6edb"/>
    </linearGradient>
    <filter id="drop-shadow-1" filterUnits="userSpaceOnUse">
      <feOffset dx="0" dy="0"/>
      <feGaussianBlur result="blur" stdDeviation="50"/>
      <feFlood flood-color="#000" flood-opacity=".3"/>
      <feComposite in2="blur" operator="in"/>
      <feComposite in="SourceGraphic"/>
    </filter>
    <linearGradient id="linear-gradient-2" x1="396.74" y1="329.59" x2="765.59" y2="698.44" gradientTransform="translate(0 1026) scale(1 -1)" gradientUnits="userSpaceOnUse">
      <stop offset="0" stop-color="#d9eaff"/>
      <stop offset="1" stop-color="#dfedfb"/>
    </linearGradient>
  </defs>
  <g>
    <path class="cls-3" d="m567.62,0H0v1023.99h1024V0h-456.38Zm423.41,937.54h0s0,0,0,0c0,0,0,0,0,0Z"/>
    <path class="cls-5" d="m404.56,937.54h0c-36.18-35.35-64.89-7.29-101.07-42.64-36.18-35.35-7.46-63.41-43.64-98.76-36.18-35.35-64.89-7.29-101.07-42.64-36.18-35.35-7.46-63.41-43.64-98.76-36.18-35.35-64.89-7.29-101.07-42.64-6.58-6.43-11.01-12.62-14.08-18.66v430.55h437.85c-19.92-29.81-1.41-55.3-33.29-86.45Z"/>
    <path class="cls-5" d="m991.02,937.54c-36.18-35.35-64.89-7.29-101.06-42.64-36.18-35.35-7.46-63.41-43.64-98.76-36.18-35.35-64.89-7.29-101.07-42.64-36.18-35.35-7.46-63.41-43.64-98.76-36.18-35.35-64.89-7.29-101.07-42.64-36.18-35.35-7.46-63.41-43.64-98.76-36.18-35.35-64.89-7.29-101.07-42.64-36.18-35.35-7.46-63.41-43.64-98.76-36.18-35.35-64.89-7.29-101.07-42.64-36.18-35.35-7.46-63.41-43.64-98.76-36.18-35.35-64.89-7.29-101.07-42.64-36.18-35.35-7.46-63.41-43.64-98.76-36.18-35.35-64.89-7.29-101.07-42.64C4.73,29.9,2.05,14.9.24,0h-.24v1023.99h1024v-.48c-19.4-29.6-1.27-54.98-32.98-85.97Z"/>
    <path class="cls-5" d="m1022.89,468.14c-36.18-35.35-7.46-63.41-43.64-98.76-36.18-35.35-64.89-7.29-101.07-42.64-36.18-35.35-7.46-63.41-43.64-98.76-36.18-35.35-64.89-7.29-101.07-42.64-36.18-35.35-7.46-63.41-43.64-98.76-36.18-35.35-64.89-7.29-101.07-42.64-16.02-15.65-19.31-29.88-21.15-43.93H0v1023.99h1024V469.2c-.37-.35-.74-.7-1.11-1.06Zm-31.87,469.4h0s0,0,0,0c0,0,0,0,0,0Z"/>
  </g>
  <g id="Layer_2-2" data-name="Layer 2-2" class="cls-2">
    <g id="Logo">
      <g id="Icon">
        <path id="Triangle" class="cls-6" d="m727.01,323.45v377.05c0,62.97-66.62,102.32-119.97,70.89l-320.11-188.52c-53.47-31.49-53.47-110.29,0-141.78l320.11-188.52c53.35-31.43,119.97,7.97,119.97,70.89Z"/>
        <g id="Waves" class="cls-1">
          <path id="_3" data-name=" 3" class="cls-4" d="m709.19,399.92c-52.84-31.03-73.22,5.3-126.06-25.74-39.46-23.23-38.04-49.37-56.88-74.08l-117.41,69.18-121.91,71.8c-10.76,6.32-19.3,14.63-25.74,24.03-25.51,37.29-16.91,92.64,25.74,117.75l320.11,188.52c46.75,27.5,103.63.74,117.07-48.63,1.88-7,2.96-14.46,2.96-22.26v-287.6c-4.84-4.38-10.65-8.71-17.82-12.93l-.06-.06Z"/>
          <path id="_2" data-name=" 2" class="cls-4" d="m649.92,505.37c-52.84-31.03-73.22,5.3-126.06-25.74-52.84-31.03-32.4-67.36-85.18-98.39-11.16-6.55-20.9-10.08-29.78-11.9l-121.91,71.8c-10.76,6.32-19.3,14.63-25.74,24.03-25.57,37.24-16.97,92.58,25.68,117.69l320.11,188.52c46.75,27.5,103.63.74,117.07-48.63,1.88-7,2.96-14.46,2.96-22.26v-101.92c-42.65-29.84-27.22-63.89-77.09-93.21h-.06Z"/>
          <path id="_1" data-name=" 1" class="cls-4" d="m588.65,610.76c-52.84-31.03-73.22,5.3-126.06-25.74s-32.4-67.36-85.18-98.39c-50.11-29.44-71.06,1.71-118.15-21.52-25.51,37.29-16.97,92.64,25.74,117.81l320.11,188.52c46.75,27.5,103.63.74,117.07-48.63-13.84.11-28.87-2.22-48.23-13.61-52.84-31.03-32.4-67.36-85.18-98.39l-.11-.06Z"/>
        </g>
      </g>
    </g>
  </g>
</svg>